<?xml version="1.0" encoding="UTF-8" standalone="no"?>
<svg
   xmlns:dc="http://purl.org/dc/elements/1.1/"
   xmlns:cc="http://creativecommons.org/ns#"
   xmlns:rdf="http://www.w3.org/1999/02/22-rdf-syntax-ns#"
   xmlns:svg="http://www.w3.org/2000/svg"
   xmlns="http://www.w3.org/2000/svg"
   xmlns:sodipodi="http://sodipodi.sourceforge.net/DTD/sodipodi-0.dtd"
   xmlns:inkscape="http://www.inkscape.org/namespaces/inkscape"
   width="6.3499999mm"
   height="6.3499999mm"
   viewBox="0 0 6.3499999 6.3499999"
   version="1.1"
   id="svg8"
   inkscape:version="1.0.2-2 (e86c870879, 2021-01-15)"
   sodipodi:docname="angiIcon.svg">
  <defs
     id="defs2" />
  <sodipodi:namedview
     id="base"
     pagecolor="#ffffff"
     bordercolor="#666666"
     borderopacity="1.0"
     inkscape:pageopacity="0.0"
     inkscape:pageshadow="2"
     inkscape:zoom="1"
     inkscape:cx="2.9999888"
     inkscape:cy="-46.428588"
     inkscape:document-units="mm"
     inkscape:current-layer="g863"
     inkscape:document-rotation="0"
     showgrid="false"
     inkscape:snap-global="false"
     fit-margin-top="0"
     fit-margin-left="0"
     fit-margin-right="0"
     fit-margin-bottom="0"
     inkscape:window-width="1267"
     inkscape:window-height="967"
     inkscape:window-x="196"
     inkscape:window-y="37"
     inkscape:window-maximized="0" />
  <metadata
     id="metadata5">
    <rdf:RDF>
      <cc:Work
         rdf:about="">
        <dc:format>image/svg+xml</dc:format>
        <dc:type
           rdf:resource="http://purl.org/dc/dcmitype/StillImage" />
        <dc:title></dc:title>
      </cc:Work>
    </rdf:RDF>
  </metadata>
  <g
     inkscape:label="Layer 1"
     inkscape:groupmode="layer"
     id="layer1"
     transform="translate(-121.67053,-176.3259)">
    <g
       id="g863"
       transform="translate(-52.122917,-28.575)">
      <path
         style="fill:#fdfdfd;stroke-width:0.0373529"
         d="m 175.79183,210.17169 c -1.09048,-0.28108 -0.72492,-2.00244 0.47288,-2.22666 0.15815,-0.0296 0.12642,0.0882 0.33445,-1.24185 l 0.12414,-0.79375 h 0.45578 0.45579 l 0.021,0.10272 c 0.0505,0.24752 0.5826,3.62683 0.5826,3.70036 0,0.0771 -0.0165,0.0816 -0.29713,0.0816 h -0.29713 l -0.0223,-0.14008 c -0.12899,-0.80894 -0.41938,-1.11053 -1.06848,-1.10968 -0.61353,8.5e-4 -1.11231,0.73161 -0.68875,1.00914 0.19125,0.12531 0.28497,-0.0197 0.37212,-0.57574 0.0686,-0.43784 0.0676,-0.43706 0.28114,-0.20536 0.55653,0.60371 0.0411,1.59702 -0.72605,1.39927 z m 1.61092,-2.16116 c -0.0109,-0.0565 -0.0558,-0.39687 -0.0996,-0.75639 -0.0808,-0.66199 -0.0995,-0.77054 -0.12825,-0.74182 -0.0179,0.0179 -0.20982,1.42322 -0.19622,1.43682 0.0166,0.0166 0.38215,0.16005 0.41299,0.16208 0.017,0.001 0.022,-0.0442 0.0111,-0.10069 z"
         id="path875" />
      <path
         style="fill:#dad7d3;stroke-width:0.0373529"
         d="m 176.74957,209.14046 c -0.0835,-0.21205 -0.13258,-0.28472 -0.2906,-0.43038 l -0.15843,-0.14604 0.12876,-0.0242 c 0.16852,-0.0316 0.46523,0.0137 0.46164,0.0706 -0.0213,0.33761 -0.1004,0.63402 -0.14137,0.52999 z"
         id="path873" />
      <path
         style="fill:#fdc2bd;stroke-width:0.0373529"
         d="m 175.1067,209.27119 c 0,-0.0514 0.008,-0.0724 0.0188,-0.0467 0.0104,0.0257 0.0104,0.0677 0,0.0934 -0.0104,0.0257 -0.0188,0.005 -0.0188,-0.0467 z m 1.8647,-1.36649 c 0.002,-0.0435 0.0106,-0.0524 0.0226,-0.0226 0.0108,0.027 0.009,0.0592 -0.003,0.0716 -0.0124,0.0124 -0.0212,-0.01 -0.0196,-0.049 z"
         id="path871" />
      <path
         style="fill:#fca69e;stroke-width:0.0373529"
         d="m 175.47433,208.36062 c 0,-0.008 0.0294,-0.0372 0.0654,-0.0654 0.0592,-0.0465 0.0606,-0.0451 0.0141,0.0141 -0.0488,0.0622 -0.0795,0.082 -0.0795,0.0513 z"
         id="path869" />
      <path
         style="fill:#fd786c;stroke-width:0.0373529"
         d="m 176.50154,209.9809 c 0.0372,-0.0411 0.076,-0.0747 0.0863,-0.0747 0.0103,0 -0.0117,0.0336 -0.0489,0.0747 -0.0372,0.0411 -0.076,0.0747 -0.0863,0.0747 -0.0103,0 0.0117,-0.0336 0.0489,-0.0747 z"
         id="path867" />
      <path
         style="fill:#fd6052;stroke-width:0.0373529"
         d="m 173.79345,208.0759 v -3.175 h 3.175 3.175 v 3.175 3.175 h -3.175 -3.175 z m 2.53156,2.04945 c 0.30656,-0.1484 0.41696,-0.37067 0.51698,-1.04092 0.0798,-0.53453 0.0623,-0.50543 0.24287,-0.40405 0.25921,0.1455 0.43995,0.47776 0.49919,0.91765 l 0.0264,0.19611 h 0.33267 c 0.25453,0 0.33267,-0.0119 0.33267,-0.0505 0,-0.0278 -0.13447,-0.88751 -0.29883,-1.91055 -0.16435,-1.02305 -0.29882,-1.87439 -0.29882,-1.89188 0,-0.0701 -0.96456,-0.0372 -0.98518,0.0336 -0.0105,0.036 -0.0819,0.46878 -0.15865,0.96183 -0.14713,0.94475 -0.16052,0.98986 -0.29381,0.98986 -0.30181,0 -0.84374,0.43166 -1.01696,0.81002 -0.40076,0.87538 0.31023,1.77187 1.10146,1.38884 z m -0.48562,-0.6207 c -0.19535,-0.22247 -0.0265,-0.67718 0.31759,-0.85511 l 0.11127,-0.0575 -0.026,0.18084 c -0.10528,0.732 -0.21987,0.94017 -0.40285,0.7318 z m 1.3345,-1.49503 c -0.0822,-0.0325 -0.15414,-0.0622 -0.15992,-0.066 -0.006,-0.004 0.0271,-0.30277 0.0731,-0.66425 0.046,-0.36149 0.0887,-0.6521 0.095,-0.6458 0.009,0.009 0.19725,1.37378 0.19725,1.42931 0,0.0214 -0.0479,0.009 -0.20544,-0.0532 z"
         id="path865" />
    </g>
  </g>
</svg>
