<?xml version="1.0" encoding="UTF-8" standalone="no"?>
<svg
   xmlns:dc="http://purl.org/dc/elements/1.1/"
   xmlns:cc="http://creativecommons.org/ns#"
   xmlns:rdf="http://www.w3.org/1999/02/22-rdf-syntax-ns#"
   xmlns:svg="http://www.w3.org/2000/svg"
   xmlns="http://www.w3.org/2000/svg"
   xmlns:sodipodi="http://sodipodi.sourceforge.net/DTD/sodipodi-0.dtd"
   xmlns:inkscape="http://www.inkscape.org/namespaces/inkscape"
   version="1.1"
   id="svg10"
   width="24"
   height="24"
   viewBox="0 0 24 24"
   sodipodi:docname="googleIcon.svg"
   inkscape:version="1.0.2-2 (e86c870879, 2021-01-15)">
  <metadata
     id="metadata16">
    <rdf:RDF>
      <cc:Work
         rdf:about="">
        <dc:format>image/svg+xml</dc:format>
        <dc:type
           rdf:resource="http://purl.org/dc/dcmitype/StillImage" />
        <dc:title></dc:title>
      </cc:Work>
    </rdf:RDF>
  </metadata>
  <defs
     id="defs14" />
  <sodipodi:namedview
     pagecolor="#ffffff"
     bordercolor="#666666"
     borderopacity="1"
     objecttolerance="10"
     gridtolerance="10"
     guidetolerance="10"
     inkscape:pageopacity="0"
     inkscape:pageshadow="2"
     inkscape:window-width="1620"
     inkscape:window-height="1018"
     id="namedview12"
     showgrid="false"
     inkscape:zoom="1.4355469"
     inkscape:cx="133.39864"
     inkscape:cy="239.69747"
     inkscape:window-x="-6"
     inkscape:window-y="-6"
     inkscape:window-maximized="1"
     inkscape:current-layer="g18" />
  <g
     inkscape:groupmode="layer"
     inkscape:label="Image"
     id="g18"
     transform="translate(-0.69660096,-1.393197)">
    <g
       id="g22"
       transform="matrix(0.046875,0,0,0.046875,0.69660096,1.393197)">
      <path
         style="fill:#fdfdfd"
         d="M 0,256 V 0 H 256 512 V 256 512 H 256 0 Z"
         id="path30" />
      <path
         style="fill:#508df6"
         d="m 237,511.40798 c -1.925,-0.22502 -7.59555,-0.8552 -12.60122,-1.40039 C 144.49854,501.30524 67.722544,448.63928 30.676836,377.12033 -9.5618511,299.43713 -9.959907,214.2841 29.554371,137 48.330255,100.27714 79.955353,65.423426 116,41.729117 c 14.26639,-9.378152 41.61268,-22.651976 58,-28.153058 54.34309,-18.2425082 112.63995,-17.9176676 167,0.930554 13.381,4.639584 37.82789,16.427025 50.21125,24.210125 14.35966,9.02522 26.83861,18.560499 26.53196,20.273305 C 417.46218,60.559758 338.22542,126 336.6058,126 c -0.51716,0 -5.75886,-2.46476 -11.64822,-5.47724 -12.14313,-6.21137 -24.47725,-10.59461 -38.69907,-13.75271 -8.26269,-1.83482 -12.90082,-2.16698 -30.25851,-2.16698 -17.35769,0 -21.99582,0.33216 -30.25851,2.16698 -45.68506,10.14483 -83.70136,38.687 -104.06625,78.13166 C 108.40798,210.599 104.05417,228.13577 104.02383,256 c -0.0264,24.19824 3.80756,41.9676 13.51025,62.61721 8.49601,18.08152 16.85107,29.91285 31.39347,44.45524 22.5562,22.55621 45.59086,35.06095 77.57245,42.11147 14.46955,3.1899 44.41194,3.19616 59.14776,0.0124 47.12099,-10.18084 85.02795,-39.03537 105.87938,-80.59468 4.98628,-9.93824 6.21403,-13.20857 5.34972,-14.25 C 395.95494,309.24078 383.83986,309 328.86831,309 H 261.9815 l 0.25925,-50.25 0.25925,-50.25 121.3927,-0.25401 c 83.49159,-0.17471 121.78679,0.073 122.65493,0.79354 3.10999,2.58107 5.97624,34.26106 5.10826,56.46047 -2.06848,52.90323 -19.75931,102.47202 -51.85263,145.28836 -9.13575,12.18819 -29.2082,32.92558 -42.30326,43.70464 -35.49203,29.21489 -79.21575,48.38555 -125.5,55.02546 -10.85893,1.55782 -47.16683,2.80517 -55,1.88952 z"
         id="path28" />
      <path
         style="fill:#f04335"
         d="m 238,511.32863 c -9.03735,-0.64657 -27.76651,-3.51838 -38.27281,-5.86851 C 119.78479,487.578 52.096888,430.97155 20.513077,355.58584 -9.3277019,284.36048 -6.1183792,206.77064 29.554371,137 48.330255,100.27714 79.955353,65.423426 116,41.729117 c 14.26639,-9.378152 41.61268,-22.651976 58,-28.153058 54.34309,-18.2425082 112.63995,-17.9176676 167,0.930554 13.381,4.639584 37.82789,16.427025 50.21125,24.210125 14.35966,9.02522 26.83861,18.560499 26.53196,20.273305 C 417.46218,60.559758 338.22542,126 336.6058,126 c -0.51716,0 -5.75886,-2.46476 -11.64822,-5.47724 -12.14313,-6.21137 -24.47725,-10.59461 -38.69907,-13.75271 -8.26269,-1.83482 -12.90082,-2.16698 -30.25851,-2.16698 -17.35769,0 -21.99582,0.33216 -30.25851,2.16698 -45.68506,10.14483 -83.70136,38.687 -104.06625,78.13166 C 108.40798,210.599 104.05417,228.13577 104.02383,256 c -0.0246,22.60594 3.25811,39.27189 11.60276,58.9057 15.90945,37.43269 45.50794,66.79462 82.46741,81.80826 21.80091,8.85595 39.12843,11.83109 63.906,10.97266 23.39314,-0.81047 40.24668,-4.93532 60.73403,-14.86448 5.62872,-2.72795 10.67326,-4.68845 11.2101,-4.35667 3.76093,2.32439 80.61563,65.94795 80.84308,66.92532 0.56942,2.44682 -26.21649,20.23232 -43.78721,29.07415 -40.45341,20.35671 -88.44934,30.05106 -133,26.86369 z"
         id="path26" />
      <path
         style="fill:#28b345"
         d="m 238,511.32863 c -24.59844,-1.75988 -53.9844,-8.57882 -77.22973,-17.92096 -50.27098,-20.20356 -93.533949,-56.716 -122.665329,-103.52529 -3.517283,-5.65168 -6.578216,-10.97618 -6.802073,-11.83221 -0.277439,-1.06093 12.344842,-11.99196 39.648486,-34.336 22.030525,-18.02876 40.641026,-33.00426 41.356666,-33.27887 0.86197,-0.33077 2.39036,2.12738 4.52812,7.2827 6.41979,15.48171 17.39169,31.43001 31.16386,45.29848 15.35529,15.46267 30.82926,25.87177 50.094,33.69748 21.80091,8.85595 39.12843,11.83109 63.906,10.97266 23.39314,-0.81047 40.24668,-4.93532 60.73403,-14.86448 5.62872,-2.72795 10.67326,-4.68845 11.2101,-4.35667 3.76093,2.32439 80.61563,65.94795 80.84308,66.92532 0.56942,2.44682 -26.21649,20.23232 -43.78721,29.07415 -40.45341,20.35671 -88.44934,30.05106 -133,26.86369 z"
         id="path24" />
    </g>
  </g>
</svg>
