<?xml version="1.0" encoding="UTF-8" standalone="no"?>
<svg
   xmlns:dc="http://purl.org/dc/elements/1.1/"
   xmlns:cc="http://creativecommons.org/ns#"
   xmlns:rdf="http://www.w3.org/1999/02/22-rdf-syntax-ns#"
   xmlns:svg="http://www.w3.org/2000/svg"
   xmlns="http://www.w3.org/2000/svg"
   xmlns:sodipodi="http://sodipodi.sourceforge.net/DTD/sodipodi-0.dtd"
   xmlns:inkscape="http://www.inkscape.org/namespaces/inkscape"
   width="24"
   height="24"
   viewBox="0 0 6.3499998 6.3500002"
   version="1.1"
   id="svg8"
   inkscape:version="1.0.2-2 (e86c870879, 2021-01-15)"
   sodipodi:docname="yelpIcon.svg">
  <defs
     id="defs2" />
  <sodipodi:namedview
     id="base"
     pagecolor="#ffffff"
     bordercolor="#666666"
     borderopacity="1.0"
     inkscape:pageopacity="0.0"
     inkscape:pageshadow="2"
     inkscape:zoom="22.4"
     inkscape:cx="24.639849"
     inkscape:cy="13.185132"
     inkscape:document-units="px"
     inkscape:current-layer="layer1"
     inkscape:document-rotation="0"
     showgrid="false"
     fit-margin-top="0"
     fit-margin-left="0"
     fit-margin-right="0"
     fit-margin-bottom="0"
     units="px"
     inkscape:snap-global="false"
     inkscape:snap-bbox="true"
     inkscape:window-width="1620"
     inkscape:window-height="1018"
     inkscape:window-x="-6"
     inkscape:window-y="-6"
     inkscape:window-maximized="1" />
  <metadata
     id="metadata5">
    <rdf:RDF>
      <cc:Work
         rdf:about="">
        <dc:format>image/svg+xml</dc:format>
        <dc:type
           rdf:resource="http://purl.org/dc/dcmitype/StillImage" />
        <dc:title></dc:title>
      </cc:Work>
    </rdf:RDF>
  </metadata>
  <g
     inkscape:label="Layer 1"
     inkscape:groupmode="layer"
     id="layer1"
     transform="translate(-10.327027,-49.482841)">
    <path
       style="fill:#c0282e;stroke-width:0.0122233"
       d="m 13.125626,55.784449 c -0.223641,-0.05128 -0.483189,-0.122925 -0.578268,-0.159618 -0.216228,-0.08344 -0.374329,-0.228025 -0.406486,-0.37172 -0.01347,-0.06024 -0.0124,-0.07001 0.01338,-0.121654 0.01542,-0.03088 0.06714,-0.10169 0.114935,-0.15735 0.04779,-0.05566 0.12241,-0.150703 0.165819,-0.211209 0.137903,-0.192211 0.465787,-0.595571 0.56156,-0.69083 0.107409,-0.106829 0.166799,-0.149302 0.265529,-0.189898 0.08285,-0.03406 0.19459,-0.03948 0.247712,-0.01202 0.0797,0.04122 0.132842,0.146001 0.160191,0.315889 0.02567,0.159426 -0.0016,1.131917 -0.03849,1.367419 -0.01714,0.109751 -0.06297,0.180956 -0.140676,0.218573 -0.07955,0.0385 -0.229213,0.04359 -0.365205,0.0124 z m 1.781054,-0.595778 c -0.05492,-0.02707 -0.186483,-0.171437 -0.272178,-0.298656 -0.09745,-0.14467 -0.356629,-0.599494 -0.434638,-0.762728 -0.07618,-0.159411 -0.102488,-0.254304 -0.102488,-0.36971 0,-0.06788 0.0056,-0.09344 0.0276,-0.12658 0.04209,-0.06333 0.118912,-0.09654 0.22332,-0.09654 0.155727,0 0.172084,0.0043 1.008075,0.270116 0.230121,0.07314 0.348171,0.130343 0.437469,0.211956 0.11705,0.106978 0.149823,0.223723 0.105094,0.374394 -0.0968,0.326033 -0.505618,0.719994 -0.805435,0.776146 -0.02685,0.0051 -0.06652,0.01653 -0.08815,0.02556 -0.04868,0.02031 -0.04948,0.02029 -0.09866,-0.004 z m -3.435075,-1.163277 c -0.11571,-0.04139 -0.183816,-0.129398 -0.217765,-0.281379 -0.0256,-0.114606 -0.03582,-0.502128 -0.01747,-0.661901 0.04428,-0.385403 0.163082,-0.640316 0.344395,-0.738999 0.05098,-0.02775 0.0851,-0.03649 0.159053,-0.04077 0.165094,-0.0096 0.292924,0.0432 0.719636,0.296987 0.375257,0.223187 0.555468,0.358282 0.708465,0.531093 0.07641,0.0863 0.07911,0.09163 0.08346,0.16411 0.0092,0.153366 -0.07069,0.229403 -0.376333,0.358225 -0.244139,0.102896 -0.438724,0.171961 -0.746198,0.264855 -0.344862,0.104187 -0.396333,0.116946 -0.502607,0.124591 -0.0695,0.005 -0.104247,0.0012 -0.154639,-0.01681 z m 2.607436,-0.979015 c -0.06328,-0.0153 -0.127937,-0.05151 -0.151768,-0.08498 -0.08757,-0.122993 -0.04483,-0.324962 0.113027,-0.53399 0.137222,-0.181704 0.684841,-0.7997 0.760771,-0.85854 0.01469,-0.01138 0.06551,-0.05462 0.112938,-0.09611 0.07684,-0.0672 0.09362,-0.07634 0.154067,-0.08389 0.03732,-0.0046 0.08068,-0.0053 0.09637,-0.0013 0.03415,0.0086 0.282925,0.219991 0.413351,0.351271 0.263547,0.265277 0.389742,0.475546 0.389742,0.649403 0,0.08863 -0.02056,0.139309 -0.07987,0.196911 -0.06358,0.06175 -0.165769,0.107295 -0.457958,0.204112 -0.582212,0.192917 -1.16077,0.303053 -1.350672,0.257118 z m -0.785405,-0.559237 c -0.272123,-0.23478 -0.457546,-0.424981 -0.68897,-0.706722 -0.307415,-0.374255 -0.63592,-0.914783 -0.744862,-1.225606 -0.07119,-0.203125 -0.02275,-0.39182 0.144092,-0.561314 0.138916,-0.141119 0.381602,-0.276348 0.662426,-0.369115 0.449374,-0.148444 0.697106,-0.07175 0.808045,0.250181 0.07024,0.203836 0.114004,0.772098 0.133589,1.734728 0.01207,0.5935 0.0075,0.68114 -0.04198,0.804833 -0.01697,0.04243 -0.03087,0.0836 -0.03087,0.09149 0,0.03159 -0.04895,0.06321 -0.09785,0.06321 -0.04279,0 -0.06087,-0.01028 -0.143622,-0.08167 z"
       id="path40" />
  </g>
</svg>
